<?xml version="1.0" encoding="utf-8"?><svg viewBox="0 0 800 800" xmlns="http://www.w3.org/2000/svg" xmlns:xlink="http://www.w3.org/1999/xlink"><style>:root>svg{display:none}:root>svg:target{display:block}</style><svg viewBox="-143 145 512 512" xml:space="preserve" id="facebook" xmlns="http://www.w3.org/2000/svg"><path d="M329 145h-432c-22.1 0-40 17.9-40 40v432c0 22.1 17.9 40 40 40h432c22.1 0 40-17.9 40-40V185c0-22.1-17.9-40-40-40zm10 472c0 5.5-4.5 10-10 10h-432c-5.5 0-10-4.5-10-10V185c0-5.5 4.5-10 10-10h432c5.5 0 10 4.5 10 10v432z"/><path d="M146.8 313.7c10.3 0 21.3 3.2 21.3 3.2l6.6-39.2s-14-4.8-47.4-4.8c-20.5 0-32.4 7.8-41.1 19.3-8.2 10.9-8.5 28.4-8.5 39.7v25.7H51.2v38.3h26.5v133h49.6v-133h39.3l2.9-38.3h-42.2v-29.9c0-10.3 9.2-14 19.5-14z"/></svg><svg viewBox="0 0 24 24" fill="none" id="instagram" xmlns="http://www.w3.org/2000/svg"><path d="M16.65 7.2h.01M8 20h8a4 4 0 0 0 4-4V8a4 4 0 0 0-4-4H8a4 4 0 0 0-4 4v8a4 4 0 0 0 4 4Zm7.75-8a3.75 3.75 0 1 1-7.5 0 3.75 3.75 0 0 1 7.5 0Z" stroke="#000" stroke-width="2" stroke-linecap="round" stroke-linejoin="round"/></svg><svg fill="none" viewBox="0 0 41 16" id="slider-arrow" xmlns="http://www.w3.org/2000/svg"><path d="M.293 7.293a1 1 0 0 0 0 1.414l6.364 6.364a1 1 0 0 0 1.414-1.414L2.414 8l5.657-5.657A1 1 0 0 0 6.657.93L.293 7.293ZM41 7H1v2h40V7Z" fill="#000"/></svg><svg viewBox="0 0 48 48" id="telegram" xmlns="http://www.w3.org/2000/svg"><path fill="#29b6f6" d="M24 4a20 20 0 1 0 0 40 20 20 0 1 0 0-40Z"/><path fill="#fff" d="m33.95 15-3.746 19.126s-.161.874-1.245.874c-.576 0-.873-.274-.873-.274l-8.114-6.733-3.97-2.001-5.095-1.355S10 24.375 10 23.625c0-.625.933-.923.933-.923l21.316-8.468c-.001-.001.651-.235 1.126-.234.292 0 .625.125.625.5 0 .25-.05.5-.05.5z"/><path fill="#b0bec5" d="m23 30.505-3.426 3.374s-.149.115-.348.12a.494.494 0 0 1-.219-.043l.964-5.965L23 30.505z"/><path fill="#cfd8dc" d="M29.897 18.196a.5.5 0 0 0-.701-.093L16 26s2.106 5.892 2.427 6.912c.322 1.021.58 1.045.58 1.045l.964-5.965 9.832-9.096a.499.499 0 0 0 .094-.7z"/></svg><svg viewBox="0 0 192 192" fill="none" id="yutub" xmlns="http://www.w3.org/2000/svg"><path stroke="#000" stroke-width="12" d="M170 96c0-45-4.962-49.999-50-50H72c-45.038.001-50 5-50 50s4.962 49.999 50 50h48c45.038-.001 50-5 50-50Z"/><path stroke="#000" stroke-linejoin="round" stroke-width="12" d="M118 96 82 74v44l36-22Z"/></svg></svg>